<?xml version="1.0" encoding="UTF-8" standalone="no"?>
<!-- Created with Inkscape (http://www.inkscape.org/) -->

<svg
   width="256"
   height="256"
   viewBox="0 0 67.733332 67.733333"
   version="1.1"
   id="svg5"
   inkscape:version="1.2.2 (732a01da63, 2022-12-09)"
   sodipodi:docname="icon.svg"
   xmlns:inkscape="http://www.inkscape.org/namespaces/inkscape"
   xmlns:sodipodi="http://sodipodi.sourceforge.net/DTD/sodipodi-0.dtd"
   xmlns="http://www.w3.org/2000/svg"
   xmlns:svg="http://www.w3.org/2000/svg">
  <sodipodi:namedview
     id="namedview7"
     pagecolor="#ffffff"
     bordercolor="#000000"
     borderopacity="0.25"
     inkscape:showpageshadow="2"
     inkscape:pageopacity="0.0"
     inkscape:pagecheckerboard="0"
     inkscape:deskcolor="#d1d1d1"
     inkscape:document-units="mm"
     showgrid="false"
     inkscape:zoom="2"
     inkscape:cx="83.75"
     inkscape:cy="146.75"
     inkscape:window-width="1920"
     inkscape:window-height="991"
     inkscape:window-x="-9"
     inkscape:window-y="-9"
     inkscape:window-maximized="1"
     inkscape:current-layer="layer1" />
  <defs
     id="defs2" />
  <g
     inkscape:label="Layer 1"
     inkscape:groupmode="layer"
     id="layer1">
    <rect
       style="fill:#5e35b1;stroke:none;stroke-width:3.265;stroke-linecap:round;fill-opacity:1;stroke-dasharray:none"
       id="rect2968"
       width="79.904167"
       height="76.729164"
       x="-5.953125"
       y="-2.5135417"
       rx="1.6328965"
       ry="76.729164" />
    <g
       aria-label="b"
       id="text4580"
       style="font-size:63.5px;font-family:Mukta;-inkscape-font-specification:Mukta;fill:#5e35b1;stroke-width:3.26501;stroke-linecap:round"
       transform="translate(-0.52916667)">
      <path
         d="m 48.651584,40.5765 q 0,3.6195 -1.0795,6.5405 -1.0795,2.8575 -2.9845,4.8895 -1.8415,2.032 -4.3815,3.1115 -2.4765,1.0795 -5.334,1.0795 -2.921,0 -5.08,-0.8255 -2.159,-0.889 -4.0005,-2.6035 h -0.127 l -0.5715,2.794 h -4.699 V 10.414 h 6.477 v 18.4785 q 1.8415,-1.905 4.191,-2.8575 2.3495,-0.9525 4.953,-0.9525 5.842,0 9.2075,4.1275 3.429,4.064 3.429,11.3665 z m -6.7945,0.127 q 0,-4.826 -2.032,-7.62 -2.032,-2.794 -5.6515,-2.794 -2.2225,0 -4.064,1.016 -1.778,1.016 -3.2385,2.667 V 48.26 q 1.143,1.3335 2.667,2.159 1.5875,0.8255 3.556,0.8255 1.7145,0 3.302,-0.635 1.5875,-0.635 2.794,-1.905 1.2065,-1.27 1.905,-3.2385 0.762,-2.032 0.762,-4.7625 z"
         style="font-weight:500;-inkscape-font-specification:'Mukta Medium';fill:#ffffff;stroke-width:3.265"
         id="path4797" />
    </g>
  </g>
</svg>
